<?xml version="1.0" encoding="UTF-8" ?>
<svg version="1.1" width="20" height="20" xmlns="http://www.w3.org/2000/svg" shape-rendering="crispEdges">
<rect x="9" y="0" width="1" height="1" fill="#6ABE30" />
<rect x="10" y="0" width="1" height="1" fill="#99E550" />
<rect x="8" y="1" width="1" height="1" fill="#6ABE30" />
<rect x="9" y="1" width="1" height="1" fill="#222034" />
<rect x="10" y="1" width="1" height="1" fill="#222034" />
<rect x="11" y="1" width="1" height="1" fill="#99E550" />
<rect x="7" y="2" width="1" height="1" fill="#6ABE30" />
<rect x="8" y="2" width="1" height="1" fill="#222034" />
<rect x="9" y="2" width="1" height="1" fill="#222034" />
<rect x="10" y="2" width="1" height="1" fill="#222034" />
<rect x="11" y="2" width="1" height="1" fill="#222034" />
<rect x="12" y="2" width="1" height="1" fill="#99E550" />
<rect x="6" y="3" width="1" height="1" fill="#6ABE30" />
<rect x="7" y="3" width="1" height="1" fill="#222034" />
<rect x="8" y="3" width="1" height="1" fill="#222034" />
<rect x="9" y="3" width="1" height="1" fill="#222034" />
<rect x="10" y="3" width="1" height="1" fill="#222034" />
<rect x="11" y="3" width="1" height="1" fill="#222034" />
<rect x="12" y="3" width="1" height="1" fill="#222034" />
<rect x="13" y="3" width="1" height="1" fill="#99E550" />
<rect x="5" y="4" width="1" height="1" fill="#6ABE30" />
<rect x="6" y="4" width="1" height="1" fill="#222034" />
<rect x="7" y="4" width="1" height="1" fill="#222034" />
<rect x="8" y="4" width="1" height="1" fill="#222034" />
<rect x="9" y="4" width="1" height="1" fill="#222034" />
<rect x="10" y="4" width="1" height="1" fill="#222034" />
<rect x="11" y="4" width="1" height="1" fill="#222034" />
<rect x="12" y="4" width="1" height="1" fill="#222034" />
<rect x="13" y="4" width="1" height="1" fill="#222034" />
<rect x="14" y="4" width="1" height="1" fill="#99E550" />
<rect x="4" y="5" width="1" height="1" fill="#6ABE30" />
<rect x="5" y="5" width="1" height="1" fill="#222034" />
<rect x="6" y="5" width="1" height="1" fill="#222034" />
<rect x="7" y="5" width="1" height="1" fill="#222034" />
<rect x="8" y="5" width="1" height="1" fill="#222034" />
<rect x="9" y="5" width="1" height="1" fill="#222034" />
<rect x="10" y="5" width="1" height="1" fill="#222034" />
<rect x="11" y="5" width="1" height="1" fill="#222034" />
<rect x="12" y="5" width="1" height="1" fill="#222034" />
<rect x="13" y="5" width="1" height="1" fill="#222034" />
<rect x="14" y="5" width="1" height="1" fill="#222034" />
<rect x="15" y="5" width="1" height="1" fill="#99E550" />
<rect x="3" y="6" width="1" height="1" fill="#6ABE30" />
<rect x="4" y="6" width="1" height="1" fill="#222034" />
<rect x="5" y="6" width="1" height="1" fill="#222034" />
<rect x="6" y="6" width="1" height="1" fill="#99E550" />
<rect x="7" y="6" width="1" height="1" fill="#99E550" />
<rect x="8" y="6" width="1" height="1" fill="#99E550" />
<rect x="9" y="6" width="1" height="1" fill="#99E550" />
<rect x="10" y="6" width="1" height="1" fill="#99E550" />
<rect x="11" y="6" width="1" height="1" fill="#99E550" />
<rect x="12" y="6" width="1" height="1" fill="#99E550" />
<rect x="13" y="6" width="1" height="1" fill="#99E550" />
<rect x="14" y="6" width="1" height="1" fill="#222034" />
<rect x="15" y="6" width="1" height="1" fill="#222034" />
<rect x="16" y="6" width="1" height="1" fill="#99E550" />
<rect x="2" y="7" width="1" height="1" fill="#6ABE30" />
<rect x="3" y="7" width="1" height="1" fill="#222034" />
<rect x="4" y="7" width="1" height="1" fill="#222034" />
<rect x="5" y="7" width="1" height="1" fill="#6ABE30" />
<rect x="6" y="7" width="1" height="1" fill="#6AAB39" />
<rect x="7" y="7" width="1" height="1" fill="#79C23F" />
<rect x="8" y="7" width="1" height="1" fill="#99E550" />
<rect x="9" y="7" width="1" height="1" fill="#222034" />
<rect x="10" y="7" width="1" height="1" fill="#222034" />
<rect x="11" y="7" width="1" height="1" fill="#99E550" />
<rect x="12" y="7" width="1" height="1" fill="#7ECC56" />
<rect x="13" y="7" width="1" height="1" fill="#99E550" />
<rect x="14" y="7" width="1" height="1" fill="#99E550" />
<rect x="15" y="7" width="1" height="1" fill="#222034" />
<rect x="16" y="7" width="1" height="1" fill="#222034" />
<rect x="17" y="7" width="1" height="1" fill="#99E550" />
<rect x="1" y="8" width="1" height="1" fill="#6ABE30" />
<rect x="2" y="8" width="1" height="1" fill="#222034" />
<rect x="3" y="8" width="1" height="1" fill="#222034" />
<rect x="4" y="8" width="1" height="1" fill="#222034" />
<rect x="5" y="8" width="1" height="1" fill="#528932" />
<rect x="6" y="8" width="1" height="1" fill="#60A033" />
<rect x="7" y="8" width="1" height="1" fill="#64A836" />
<rect x="8" y="8" width="1" height="1" fill="#99E550" />
<rect x="9" y="8" width="1" height="1" fill="#222034" />
<rect x="10" y="8" width="1" height="1" fill="#222034" />
<rect x="11" y="8" width="1" height="1" fill="#99E550" />
<rect x="12" y="8" width="1" height="1" fill="#5EB45D" />
<rect x="13" y="8" width="1" height="1" fill="#7DCC56" />
<rect x="14" y="8" width="1" height="1" fill="#99E550" />
<rect x="15" y="8" width="1" height="1" fill="#222034" />
<rect x="16" y="8" width="1" height="1" fill="#222034" />
<rect x="17" y="8" width="1" height="1" fill="#222034" />
<rect x="18" y="8" width="1" height="1" fill="#99E550" />
<rect x="0" y="9" width="1" height="1" fill="#6ABE30" />
<rect x="1" y="9" width="1" height="1" fill="#222034" />
<rect x="2" y="9" width="1" height="1" fill="#222034" />
<rect x="3" y="9" width="1" height="1" fill="#222034" />
<rect x="4" y="9" width="1" height="1" fill="#222034" />
<rect x="5" y="9" width="1" height="1" fill="#4B7831" />
<rect x="6" y="9" width="1" height="1" fill="#99E550" />
<rect x="7" y="9" width="1" height="1" fill="#222034" />
<rect x="8" y="9" width="1" height="1" fill="#222034" />
<rect x="9" y="9" width="1" height="1" fill="#222034" />
<rect x="10" y="9" width="1" height="1" fill="#222034" />
<rect x="11" y="9" width="1" height="1" fill="#222034" />
<rect x="12" y="9" width="1" height="1" fill="#222034" />
<rect x="13" y="9" width="1" height="1" fill="#99E550" />
<rect x="14" y="9" width="1" height="1" fill="#99E550" />
<rect x="15" y="9" width="1" height="1" fill="#222034" />
<rect x="16" y="9" width="1" height="1" fill="#222034" />
<rect x="17" y="9" width="1" height="1" fill="#222034" />
<rect x="18" y="9" width="1" height="1" fill="#222034" />
<rect x="19" y="9" width="1" height="1" fill="#99E550" />
<rect x="0" y="10" width="1" height="1" fill="#4B692F" />
<rect x="1" y="10" width="1" height="1" fill="#222034" />
<rect x="2" y="10" width="1" height="1" fill="#222034" />
<rect x="3" y="10" width="1" height="1" fill="#222034" />
<rect x="4" y="10" width="1" height="1" fill="#222034" />
<rect x="5" y="10" width="1" height="1" fill="#589330" />
<rect x="6" y="10" width="1" height="1" fill="#527E2F" />
<rect x="7" y="10" width="1" height="1" fill="#99E550" />
<rect x="8" y="10" width="1" height="1" fill="#222034" />
<rect x="9" y="10" width="1" height="1" fill="#222034" />
<rect x="10" y="10" width="1" height="1" fill="#222034" />
<rect x="11" y="10" width="1" height="1" fill="#222034" />
<rect x="12" y="10" width="1" height="1" fill="#99E550" />
<rect x="13" y="10" width="1" height="1" fill="#3F9B68" />
<rect x="14" y="10" width="1" height="1" fill="#398562" />
<rect x="15" y="10" width="1" height="1" fill="#222034" />
<rect x="16" y="10" width="1" height="1" fill="#222034" />
<rect x="17" y="10" width="1" height="1" fill="#222034" />
<rect x="18" y="10" width="1" height="1" fill="#222034" />
<rect x="19" y="10" width="1" height="1" fill="#37946E" />
<rect x="1" y="11" width="1" height="1" fill="#4B692F" />
<rect x="2" y="11" width="1" height="1" fill="#222034" />
<rect x="3" y="11" width="1" height="1" fill="#222034" />
<rect x="4" y="11" width="1" height="1" fill="#222034" />
<rect x="5" y="11" width="1" height="1" fill="#4B692F" />
<rect x="6" y="11" width="1" height="1" fill="#4D702F" />
<rect x="7" y="11" width="1" height="1" fill="#4D712F" />
<rect x="8" y="11" width="1" height="1" fill="#99E550" />
<rect x="9" y="11" width="1" height="1" fill="#222034" />
<rect x="10" y="11" width="1" height="1" fill="#222034" />
<rect x="11" y="11" width="1" height="1" fill="#99E550" />
<rect x="12" y="11" width="1" height="1" fill="#4F9D49" />
<rect x="13" y="11" width="1" height="1" fill="#43995D" />
<rect x="14" y="11" width="1" height="1" fill="#37815F" />
<rect x="15" y="11" width="1" height="1" fill="#222034" />
<rect x="16" y="11" width="1" height="1" fill="#222034" />
<rect x="17" y="11" width="1" height="1" fill="#222034" />
<rect x="18" y="11" width="1" height="1" fill="#37946E" />
<rect x="2" y="12" width="1" height="1" fill="#4B692F" />
<rect x="3" y="12" width="1" height="1" fill="#222034" />
<rect x="4" y="12" width="1" height="1" fill="#222034" />
<rect x="5" y="12" width="1" height="1" fill="#4B692F" />
<rect x="6" y="12" width="1" height="1" fill="#4B692F" />
<rect x="7" y="12" width="1" height="1" fill="#4B6A2F" />
<rect x="8" y="12" width="1" height="1" fill="#4B6C30" />
<rect x="9" y="12" width="1" height="1" fill="#99E550" />
<rect x="10" y="12" width="1" height="1" fill="#99E550" />
<rect x="11" y="12" width="1" height="1" fill="#4C7E37" />
<rect x="12" y="12" width="1" height="1" fill="#4D873C" />
<rect x="13" y="12" width="1" height="1" fill="#478543" />
<rect x="14" y="12" width="1" height="1" fill="#35795A" />
<rect x="15" y="12" width="1" height="1" fill="#222034" />
<rect x="16" y="12" width="1" height="1" fill="#222034" />
<rect x="17" y="12" width="1" height="1" fill="#37946E" />
<rect x="3" y="13" width="1" height="1" fill="#4B692F" />
<rect x="4" y="13" width="1" height="1" fill="#222034" />
<rect x="5" y="13" width="1" height="1" fill="#222034" />
<rect x="6" y="13" width="1" height="1" fill="#4B692F" />
<rect x="7" y="13" width="1" height="1" fill="#4B692F" />
<rect x="8" y="13" width="1" height="1" fill="#4B692F" />
<rect x="9" y="13" width="1" height="1" fill="#4B692F" />
<rect x="10" y="13" width="1" height="1" fill="#4B692F" />
<rect x="11" y="13" width="1" height="1" fill="#4B692F" />
<rect x="12" y="13" width="1" height="1" fill="#4B692F" />
<rect x="13" y="13" width="1" height="1" fill="#4B692F" />
<rect x="14" y="13" width="1" height="1" fill="#222034" />
<rect x="15" y="13" width="1" height="1" fill="#222034" />
<rect x="16" y="13" width="1" height="1" fill="#37946E" />
<rect x="4" y="14" width="1" height="1" fill="#4B692F" />
<rect x="5" y="14" width="1" height="1" fill="#222034" />
<rect x="6" y="14" width="1" height="1" fill="#222034" />
<rect x="7" y="14" width="1" height="1" fill="#222034" />
<rect x="8" y="14" width="1" height="1" fill="#222034" />
<rect x="9" y="14" width="1" height="1" fill="#222034" />
<rect x="10" y="14" width="1" height="1" fill="#222034" />
<rect x="11" y="14" width="1" height="1" fill="#222034" />
<rect x="12" y="14" width="1" height="1" fill="#222034" />
<rect x="13" y="14" width="1" height="1" fill="#222034" />
<rect x="14" y="14" width="1" height="1" fill="#222034" />
<rect x="15" y="14" width="1" height="1" fill="#37946E" />
<rect x="5" y="15" width="1" height="1" fill="#4B692F" />
<rect x="6" y="15" width="1" height="1" fill="#222034" />
<rect x="7" y="15" width="1" height="1" fill="#222034" />
<rect x="8" y="15" width="1" height="1" fill="#222034" />
<rect x="9" y="15" width="1" height="1" fill="#222034" />
<rect x="10" y="15" width="1" height="1" fill="#222034" />
<rect x="11" y="15" width="1" height="1" fill="#222034" />
<rect x="12" y="15" width="1" height="1" fill="#222034" />
<rect x="13" y="15" width="1" height="1" fill="#222034" />
<rect x="14" y="15" width="1" height="1" fill="#37946E" />
<rect x="6" y="16" width="1" height="1" fill="#4B692F" />
<rect x="7" y="16" width="1" height="1" fill="#222034" />
<rect x="8" y="16" width="1" height="1" fill="#222034" />
<rect x="9" y="16" width="1" height="1" fill="#222034" />
<rect x="10" y="16" width="1" height="1" fill="#222034" />
<rect x="11" y="16" width="1" height="1" fill="#222034" />
<rect x="12" y="16" width="1" height="1" fill="#222034" />
<rect x="13" y="16" width="1" height="1" fill="#37946E" />
<rect x="7" y="17" width="1" height="1" fill="#4B692F" />
<rect x="8" y="17" width="1" height="1" fill="#222034" />
<rect x="9" y="17" width="1" height="1" fill="#222034" />
<rect x="10" y="17" width="1" height="1" fill="#222034" />
<rect x="11" y="17" width="1" height="1" fill="#222034" />
<rect x="12" y="17" width="1" height="1" fill="#37946E" />
<rect x="8" y="18" width="1" height="1" fill="#4B692F" />
<rect x="9" y="18" width="1" height="1" fill="#222034" />
<rect x="10" y="18" width="1" height="1" fill="#222034" />
<rect x="11" y="18" width="1" height="1" fill="#37946E" />
<rect x="9" y="19" width="1" height="1" fill="#4B692F" />
<rect x="10" y="19" width="1" height="1" fill="#37946E" />
</svg>