<?xml version="1.0" encoding="UTF-8" ?>
<svg version="1.1" width="20" height="20" xmlns="http://www.w3.org/2000/svg" shape-rendering="crispEdges">
<rect x="9" y="0" width="1" height="1" fill="#9BADB7" />
<rect x="10" y="0" width="1" height="1" fill="#D3DEE4" />
<rect x="8" y="1" width="1" height="1" fill="#9BADB7" />
<rect x="9" y="1" width="1" height="1" fill="#222034" />
<rect x="10" y="1" width="1" height="1" fill="#222034" />
<rect x="11" y="1" width="1" height="1" fill="#D3DEE4" />
<rect x="7" y="2" width="1" height="1" fill="#9BADB7" />
<rect x="8" y="2" width="1" height="1" fill="#222034" />
<rect x="9" y="2" width="1" height="1" fill="#222034" />
<rect x="10" y="2" width="1" height="1" fill="#222034" />
<rect x="11" y="2" width="1" height="1" fill="#222034" />
<rect x="12" y="2" width="1" height="1" fill="#D3DEE4" />
<rect x="6" y="3" width="1" height="1" fill="#9BADB7" />
<rect x="7" y="3" width="1" height="1" fill="#222034" />
<rect x="8" y="3" width="1" height="1" fill="#222034" />
<rect x="9" y="3" width="1" height="1" fill="#222034" />
<rect x="10" y="3" width="1" height="1" fill="#222034" />
<rect x="11" y="3" width="1" height="1" fill="#222034" />
<rect x="12" y="3" width="1" height="1" fill="#222034" />
<rect x="13" y="3" width="1" height="1" fill="#D3DEE4" />
<rect x="5" y="4" width="1" height="1" fill="#9BADB7" />
<rect x="6" y="4" width="1" height="1" fill="#222034" />
<rect x="7" y="4" width="1" height="1" fill="#222034" />
<rect x="8" y="4" width="1" height="1" fill="#222034" />
<rect x="9" y="4" width="1" height="1" fill="#222034" />
<rect x="10" y="4" width="1" height="1" fill="#222034" />
<rect x="11" y="4" width="1" height="1" fill="#222034" />
<rect x="12" y="4" width="1" height="1" fill="#222034" />
<rect x="13" y="4" width="1" height="1" fill="#222034" />
<rect x="14" y="4" width="1" height="1" fill="#D3DEE4" />
<rect x="4" y="5" width="1" height="1" fill="#9BADB7" />
<rect x="5" y="5" width="1" height="1" fill="#222034" />
<rect x="6" y="5" width="1" height="1" fill="#222034" />
<rect x="7" y="5" width="1" height="1" fill="#222034" />
<rect x="8" y="5" width="1" height="1" fill="#222034" />
<rect x="9" y="5" width="1" height="1" fill="#D3DEE4" />
<rect x="10" y="5" width="1" height="1" fill="#D3DEE4" />
<rect x="11" y="5" width="1" height="1" fill="#222034" />
<rect x="12" y="5" width="1" height="1" fill="#222034" />
<rect x="13" y="5" width="1" height="1" fill="#222034" />
<rect x="14" y="5" width="1" height="1" fill="#222034" />
<rect x="15" y="5" width="1" height="1" fill="#D3DEE4" />
<rect x="3" y="6" width="1" height="1" fill="#9BADB7" />
<rect x="4" y="6" width="1" height="1" fill="#222034" />
<rect x="5" y="6" width="1" height="1" fill="#222034" />
<rect x="6" y="6" width="1" height="1" fill="#646978" />
<rect x="7" y="6" width="1" height="1" fill="#D3DEE4" />
<rect x="8" y="6" width="1" height="1" fill="#222034" />
<rect x="9" y="6" width="1" height="1" fill="#8C98A3" />
<rect x="10" y="6" width="1" height="1" fill="#8C98A3" />
<rect x="11" y="6" width="1" height="1" fill="#222034" />
<rect x="12" y="6" width="1" height="1" fill="#717986" />
<rect x="13" y="6" width="1" height="1" fill="#D3DEE4" />
<rect x="14" y="6" width="1" height="1" fill="#222034" />
<rect x="15" y="6" width="1" height="1" fill="#222034" />
<rect x="16" y="6" width="1" height="1" fill="#D3DEE4" />
<rect x="2" y="7" width="1" height="1" fill="#9BADB7" />
<rect x="3" y="7" width="1" height="1" fill="#222034" />
<rect x="4" y="7" width="1" height="1" fill="#222034" />
<rect x="5" y="7" width="1" height="1" fill="#222034" />
<rect x="6" y="7" width="1" height="1" fill="#717986" />
<rect x="7" y="7" width="1" height="1" fill="#8C98A3" />
<rect x="8" y="7" width="1" height="1" fill="#85929E" />
<rect x="9" y="7" width="1" height="1" fill="#85929E" />
<rect x="10" y="7" width="1" height="1" fill="#ADBCC4" />
<rect x="11" y="7" width="1" height="1" fill="#B5C5CD" />
<rect x="12" y="7" width="1" height="1" fill="#D3DEE4" />
<rect x="13" y="7" width="1" height="1" fill="#717986" />
<rect x="14" y="7" width="1" height="1" fill="#222034" />
<rect x="15" y="7" width="1" height="1" fill="#222034" />
<rect x="16" y="7" width="1" height="1" fill="#222034" />
<rect x="17" y="7" width="1" height="1" fill="#D3DEE4" />
<rect x="1" y="8" width="1" height="1" fill="#9BADB7" />
<rect x="2" y="8" width="1" height="1" fill="#222034" />
<rect x="3" y="8" width="1" height="1" fill="#222034" />
<rect x="4" y="8" width="1" height="1" fill="#222034" />
<rect x="5" y="8" width="1" height="1" fill="#222034" />
<rect x="6" y="8" width="1" height="1" fill="#222034" />
<rect x="7" y="8" width="1" height="1" fill="#83909C" />
<rect x="8" y="8" width="1" height="1" fill="#818E9A" />
<rect x="9" y="8" width="1" height="1" fill="#7E8894" />
<rect x="10" y="8" width="1" height="1" fill="#7E8894" />
<rect x="11" y="8" width="1" height="1" fill="#8B9BA6" />
<rect x="12" y="8" width="1" height="1" fill="#B5C5CD" />
<rect x="13" y="8" width="1" height="1" fill="#222034" />
<rect x="14" y="8" width="1" height="1" fill="#222034" />
<rect x="15" y="8" width="1" height="1" fill="#222034" />
<rect x="16" y="8" width="1" height="1" fill="#222034" />
<rect x="17" y="8" width="1" height="1" fill="#222034" />
<rect x="18" y="8" width="1" height="1" fill="#D3DEE4" />
<rect x="0" y="9" width="1" height="1" fill="#9BADB7" />
<rect x="1" y="9" width="1" height="1" fill="#222034" />
<rect x="2" y="9" width="1" height="1" fill="#222034" />
<rect x="3" y="9" width="1" height="1" fill="#222034" />
<rect x="4" y="9" width="1" height="1" fill="#222034" />
<rect x="5" y="9" width="1" height="1" fill="#4C4F5D" />
<rect x="6" y="9" width="1" height="1" fill="#6D7680" />
<rect x="7" y="9" width="1" height="1" fill="#86939E" />
<rect x="8" y="9" width="1" height="1" fill="#93A2AD" />
<rect x="9" y="9" width="1" height="1" fill="#222034" />
<rect x="10" y="9" width="1" height="1" fill="#222034" />
<rect x="11" y="9" width="1" height="1" fill="#7E8894" />
<rect x="12" y="9" width="1" height="1" fill="#8895A0" />
<rect x="13" y="9" width="1" height="1" fill="#7E8894" />
<rect x="14" y="9" width="1" height="1" fill="#D3DEE4" />
<rect x="15" y="9" width="1" height="1" fill="#222034" />
<rect x="16" y="9" width="1" height="1" fill="#222034" />
<rect x="17" y="9" width="1" height="1" fill="#222034" />
<rect x="18" y="9" width="1" height="1" fill="#222034" />
<rect x="19" y="9" width="1" height="1" fill="#D3DEE4" />
<rect x="0" y="10" width="1" height="1" fill="#696A6A" />
<rect x="1" y="10" width="1" height="1" fill="#222034" />
<rect x="2" y="10" width="1" height="1" fill="#222034" />
<rect x="3" y="10" width="1" height="1" fill="#222034" />
<rect x="4" y="10" width="1" height="1" fill="#222034" />
<rect x="5" y="10" width="1" height="1" fill="#4C4F5D" />
<rect x="6" y="10" width="1" height="1" fill="#6D757F" />
<rect x="7" y="10" width="1" height="1" fill="#88959F" />
<rect x="8" y="10" width="1" height="1" fill="#93A2AD" />
<rect x="9" y="10" width="1" height="1" fill="#222034" />
<rect x="10" y="10" width="1" height="1" fill="#222034" />
<rect x="11" y="10" width="1" height="1" fill="#7E8894" />
<rect x="12" y="10" width="1" height="1" fill="#87939F" />
<rect x="13" y="10" width="1" height="1" fill="#7D8693" />
<rect x="14" y="10" width="1" height="1" fill="#B5C5CD" />
<rect x="15" y="10" width="1" height="1" fill="#222034" />
<rect x="16" y="10" width="1" height="1" fill="#222034" />
<rect x="17" y="10" width="1" height="1" fill="#222034" />
<rect x="18" y="10" width="1" height="1" fill="#222034" />
<rect x="19" y="10" width="1" height="1" fill="#847E87" />
<rect x="1" y="11" width="1" height="1" fill="#696A6A" />
<rect x="2" y="11" width="1" height="1" fill="#222034" />
<rect x="3" y="11" width="1" height="1" fill="#222034" />
<rect x="4" y="11" width="1" height="1" fill="#222034" />
<rect x="5" y="11" width="1" height="1" fill="#222034" />
<rect x="6" y="11" width="1" height="1" fill="#222034" />
<rect x="7" y="11" width="1" height="1" fill="#828E97" />
<rect x="8" y="11" width="1" height="1" fill="#8D9DA8" />
<rect x="9" y="11" width="1" height="1" fill="#93A2AD" />
<rect x="10" y="11" width="1" height="1" fill="#93A2AD" />
<rect x="11" y="11" width="1" height="1" fill="#8795A1" />
<rect x="12" y="11" width="1" height="1" fill="#93A2AD" />
<rect x="13" y="11" width="1" height="1" fill="#222034" />
<rect x="14" y="11" width="1" height="1" fill="#222034" />
<rect x="15" y="11" width="1" height="1" fill="#222034" />
<rect x="16" y="11" width="1" height="1" fill="#222034" />
<rect x="17" y="11" width="1" height="1" fill="#222034" />
<rect x="18" y="11" width="1" height="1" fill="#847E87" />
<rect x="2" y="12" width="1" height="1" fill="#696A6A" />
<rect x="3" y="12" width="1" height="1" fill="#222034" />
<rect x="4" y="12" width="1" height="1" fill="#222034" />
<rect x="5" y="12" width="1" height="1" fill="#222034" />
<rect x="6" y="12" width="1" height="1" fill="#4C4E59" />
<rect x="7" y="12" width="1" height="1" fill="#636871" />
<rect x="8" y="12" width="1" height="1" fill="#828E97" />
<rect x="9" y="12" width="1" height="1" fill="#7B8792" />
<rect x="10" y="12" width="1" height="1" fill="#808C97" />
<rect x="11" y="12" width="1" height="1" fill="#7D8893" />
<rect x="12" y="12" width="1" height="1" fill="#717781" />
<rect x="13" y="12" width="1" height="1" fill="#D3DEE4" />
<rect x="14" y="12" width="1" height="1" fill="#222034" />
<rect x="15" y="12" width="1" height="1" fill="#222034" />
<rect x="16" y="12" width="1" height="1" fill="#222034" />
<rect x="17" y="12" width="1" height="1" fill="#847E87" />
<rect x="3" y="13" width="1" height="1" fill="#696A6A" />
<rect x="4" y="13" width="1" height="1" fill="#222034" />
<rect x="5" y="13" width="1" height="1" fill="#222034" />
<rect x="6" y="13" width="1" height="1" fill="#42424E" />
<rect x="7" y="13" width="1" height="1" fill="#4C4E59" />
<rect x="8" y="13" width="1" height="1" fill="#222034" />
<rect x="9" y="13" width="1" height="1" fill="#727B85" />
<rect x="10" y="13" width="1" height="1" fill="#757E88" />
<rect x="11" y="13" width="1" height="1" fill="#222034" />
<rect x="12" y="13" width="1" height="1" fill="#595C68" />
<rect x="13" y="13" width="1" height="1" fill="#4F505D" />
<rect x="14" y="13" width="1" height="1" fill="#222034" />
<rect x="15" y="13" width="1" height="1" fill="#222034" />
<rect x="16" y="13" width="1" height="1" fill="#847E87" />
<rect x="4" y="14" width="1" height="1" fill="#696A6A" />
<rect x="5" y="14" width="1" height="1" fill="#222034" />
<rect x="6" y="14" width="1" height="1" fill="#222034" />
<rect x="7" y="14" width="1" height="1" fill="#222034" />
<rect x="8" y="14" width="1" height="1" fill="#222034" />
<rect x="9" y="14" width="1" height="1" fill="#4C4F5D" />
<rect x="10" y="14" width="1" height="1" fill="#4C4F5D" />
<rect x="11" y="14" width="1" height="1" fill="#222034" />
<rect x="12" y="14" width="1" height="1" fill="#222034" />
<rect x="13" y="14" width="1" height="1" fill="#222034" />
<rect x="14" y="14" width="1" height="1" fill="#222034" />
<rect x="15" y="14" width="1" height="1" fill="#847E87" />
<rect x="5" y="15" width="1" height="1" fill="#696A6A" />
<rect x="6" y="15" width="1" height="1" fill="#222034" />
<rect x="7" y="15" width="1" height="1" fill="#222034" />
<rect x="8" y="15" width="1" height="1" fill="#222034" />
<rect x="9" y="15" width="1" height="1" fill="#222034" />
<rect x="10" y="15" width="1" height="1" fill="#222034" />
<rect x="11" y="15" width="1" height="1" fill="#222034" />
<rect x="12" y="15" width="1" height="1" fill="#222034" />
<rect x="13" y="15" width="1" height="1" fill="#222034" />
<rect x="14" y="15" width="1" height="1" fill="#847E87" />
<rect x="6" y="16" width="1" height="1" fill="#696A6A" />
<rect x="7" y="16" width="1" height="1" fill="#222034" />
<rect x="8" y="16" width="1" height="1" fill="#222034" />
<rect x="9" y="16" width="1" height="1" fill="#222034" />
<rect x="10" y="16" width="1" height="1" fill="#222034" />
<rect x="11" y="16" width="1" height="1" fill="#222034" />
<rect x="12" y="16" width="1" height="1" fill="#222034" />
<rect x="13" y="16" width="1" height="1" fill="#847E87" />
<rect x="7" y="17" width="1" height="1" fill="#696A6A" />
<rect x="8" y="17" width="1" height="1" fill="#222034" />
<rect x="9" y="17" width="1" height="1" fill="#222034" />
<rect x="10" y="17" width="1" height="1" fill="#222034" />
<rect x="11" y="17" width="1" height="1" fill="#222034" />
<rect x="12" y="17" width="1" height="1" fill="#847E87" />
<rect x="8" y="18" width="1" height="1" fill="#696A6A" />
<rect x="9" y="18" width="1" height="1" fill="#222034" />
<rect x="10" y="18" width="1" height="1" fill="#222034" />
<rect x="11" y="18" width="1" height="1" fill="#847E87" />
<rect x="9" y="19" width="1" height="1" fill="#696A6A" />
<rect x="10" y="19" width="1" height="1" fill="#847E87" />
</svg>