<?xml version="1.0" encoding="UTF-8" ?>
<svg version="1.1" width="20" height="20" xmlns="http://www.w3.org/2000/svg" shape-rendering="crispEdges">
<rect x="9" y="0" width="1" height="1" fill="#CD8B28" />
<rect x="10" y="0" width="1" height="1" fill="#FFD70C" />
<rect x="8" y="1" width="1" height="1" fill="#CD8B28" />
<rect x="9" y="1" width="1" height="1" fill="#222034" />
<rect x="10" y="1" width="1" height="1" fill="#222034" />
<rect x="11" y="1" width="1" height="1" fill="#FFD70C" />
<rect x="7" y="2" width="1" height="1" fill="#CD8B28" />
<rect x="8" y="2" width="1" height="1" fill="#222034" />
<rect x="9" y="2" width="1" height="1" fill="#222034" />
<rect x="10" y="2" width="1" height="1" fill="#222034" />
<rect x="11" y="2" width="1" height="1" fill="#222034" />
<rect x="12" y="2" width="1" height="1" fill="#FFD70C" />
<rect x="6" y="3" width="1" height="1" fill="#CD8B28" />
<rect x="7" y="3" width="1" height="1" fill="#222034" />
<rect x="8" y="3" width="1" height="1" fill="#222034" />
<rect x="9" y="3" width="1" height="1" fill="#222034" />
<rect x="10" y="3" width="1" height="1" fill="#222034" />
<rect x="11" y="3" width="1" height="1" fill="#222034" />
<rect x="12" y="3" width="1" height="1" fill="#222034" />
<rect x="13" y="3" width="1" height="1" fill="#FFD70C" />
<rect x="5" y="4" width="1" height="1" fill="#CD8B28" />
<rect x="6" y="4" width="1" height="1" fill="#222034" />
<rect x="7" y="4" width="1" height="1" fill="#222034" />
<rect x="8" y="4" width="1" height="1" fill="#222034" />
<rect x="9" y="4" width="1" height="1" fill="#222034" />
<rect x="10" y="4" width="1" height="1" fill="#222034" />
<rect x="11" y="4" width="1" height="1" fill="#222034" />
<rect x="12" y="4" width="1" height="1" fill="#222034" />
<rect x="13" y="4" width="1" height="1" fill="#222034" />
<rect x="14" y="4" width="1" height="1" fill="#FFD70C" />
<rect x="4" y="5" width="1" height="1" fill="#CD8B28" />
<rect x="5" y="5" width="1" height="1" fill="#222034" />
<rect x="6" y="5" width="1" height="1" fill="#222034" />
<rect x="7" y="5" width="1" height="1" fill="#222034" />
<rect x="8" y="5" width="1" height="1" fill="#222034" />
<rect x="9" y="5" width="1" height="1" fill="#222034" />
<rect x="10" y="5" width="1" height="1" fill="#222034" />
<rect x="11" y="5" width="1" height="1" fill="#222034" />
<rect x="12" y="5" width="1" height="1" fill="#222034" />
<rect x="13" y="5" width="1" height="1" fill="#222034" />
<rect x="14" y="5" width="1" height="1" fill="#222034" />
<rect x="15" y="5" width="1" height="1" fill="#FFD70C" />
<rect x="3" y="6" width="1" height="1" fill="#CD8B28" />
<rect x="4" y="6" width="1" height="1" fill="#222034" />
<rect x="5" y="6" width="1" height="1" fill="#222034" />
<rect x="6" y="6" width="1" height="1" fill="#FFD70C" />
<rect x="7" y="6" width="1" height="1" fill="#FFD70C" />
<rect x="8" y="6" width="1" height="1" fill="#FFD70C" />
<rect x="9" y="6" width="1" height="1" fill="#FFD70C" />
<rect x="10" y="6" width="1" height="1" fill="#FFE144" />
<rect x="11" y="6" width="1" height="1" fill="#FFE144" />
<rect x="12" y="6" width="1" height="1" fill="#FFE144" />
<rect x="13" y="6" width="1" height="1" fill="#FFE144" />
<rect x="14" y="6" width="1" height="1" fill="#222034" />
<rect x="15" y="6" width="1" height="1" fill="#222034" />
<rect x="16" y="6" width="1" height="1" fill="#FFD70C" />
<rect x="2" y="7" width="1" height="1" fill="#CD8B28" />
<rect x="3" y="7" width="1" height="1" fill="#222034" />
<rect x="4" y="7" width="1" height="1" fill="#222034" />
<rect x="5" y="7" width="1" height="1" fill="#8A5824" />
<rect x="6" y="7" width="1" height="1" fill="#FFD70C" />
<rect x="7" y="7" width="1" height="1" fill="#492C0A" />
<rect x="8" y="7" width="1" height="1" fill="#F7CC0E" />
<rect x="9" y="7" width="1" height="1" fill="#FFD70C" />
<rect x="10" y="7" width="1" height="1" fill="#FAD00D" />
<rect x="11" y="7" width="1" height="1" fill="#FAD00D" />
<rect x="12" y="7" width="1" height="1" fill="#492C0A" />
<rect x="13" y="7" width="1" height="1" fill="#FFE144" />
<rect x="14" y="7" width="1" height="1" fill="#FFE144" />
<rect x="15" y="7" width="1" height="1" fill="#222034" />
<rect x="16" y="7" width="1" height="1" fill="#222034" />
<rect x="17" y="7" width="1" height="1" fill="#FFD70C" />
<rect x="1" y="8" width="1" height="1" fill="#CD8B28" />
<rect x="2" y="8" width="1" height="1" fill="#222034" />
<rect x="3" y="8" width="1" height="1" fill="#222034" />
<rect x="4" y="8" width="1" height="1" fill="#222034" />
<rect x="5" y="8" width="1" height="1" fill="#8A5824" />
<rect x="6" y="8" width="1" height="1" fill="#C08032" />
<rect x="7" y="8" width="1" height="1" fill="#492C0A" />
<rect x="8" y="8" width="1" height="1" fill="#E8B51C" />
<rect x="9" y="8" width="1" height="1" fill="#EBBA1A" />
<rect x="10" y="8" width="1" height="1" fill="#EEBE17" />
<rect x="11" y="8" width="1" height="1" fill="#F2C512" />
<rect x="12" y="8" width="1" height="1" fill="#492C0A" />
<rect x="13" y="8" width="1" height="1" fill="#FBD20C" />
<rect x="14" y="8" width="1" height="1" fill="#FFE144" />
<rect x="15" y="8" width="1" height="1" fill="#222034" />
<rect x="16" y="8" width="1" height="1" fill="#222034" />
<rect x="17" y="8" width="1" height="1" fill="#222034" />
<rect x="18" y="8" width="1" height="1" fill="#FFD70C" />
<rect x="0" y="9" width="1" height="1" fill="#CD8B28" />
<rect x="1" y="9" width="1" height="1" fill="#222034" />
<rect x="2" y="9" width="1" height="1" fill="#222034" />
<rect x="3" y="9" width="1" height="1" fill="#222034" />
<rect x="4" y="9" width="1" height="1" fill="#222034" />
<rect x="5" y="9" width="1" height="1" fill="#8A5824" />
<rect x="6" y="9" width="1" height="1" fill="#AC712D" />
<rect x="7" y="9" width="1" height="1" fill="#C5862F" />
<rect x="8" y="9" width="1" height="1" fill="#D39529" />
<rect x="9" y="9" width="1" height="1" fill="#DBA125" />
<rect x="10" y="9" width="1" height="1" fill="#E1A821" />
<rect x="11" y="9" width="1" height="1" fill="#E7B21D" />
<rect x="12" y="9" width="1" height="1" fill="#EEBE16" />
<rect x="13" y="9" width="1" height="1" fill="#F6CD0E" />
<rect x="14" y="9" width="1" height="1" fill="#FFE144" />
<rect x="15" y="9" width="1" height="1" fill="#222034" />
<rect x="16" y="9" width="1" height="1" fill="#222034" />
<rect x="17" y="9" width="1" height="1" fill="#222034" />
<rect x="18" y="9" width="1" height="1" fill="#222034" />
<rect x="19" y="9" width="1" height="1" fill="#FFD70C" />
<rect x="0" y="10" width="1" height="1" fill="#8A5824" />
<rect x="1" y="10" width="1" height="1" fill="#222034" />
<rect x="2" y="10" width="1" height="1" fill="#222034" />
<rect x="3" y="10" width="1" height="1" fill="#222034" />
<rect x="4" y="10" width="1" height="1" fill="#222034" />
<rect x="5" y="10" width="1" height="1" fill="#8A5824" />
<rect x="6" y="10" width="1" height="1" fill="#A26A28" />
<rect x="7" y="10" width="1" height="1" fill="#492C0A" />
<rect x="8" y="10" width="1" height="1" fill="#FFC2C2" />
<rect x="9" y="10" width="1" height="1" fill="#FFC2C2" />
<rect x="10" y="10" width="1" height="1" fill="#FFC2C2" />
<rect x="11" y="10" width="1" height="1" fill="#FFC2C2" />
<rect x="12" y="10" width="1" height="1" fill="#492C0A" />
<rect x="13" y="10" width="1" height="1" fill="#F0C215" />
<rect x="14" y="10" width="1" height="1" fill="#FFE144" />
<rect x="15" y="10" width="1" height="1" fill="#222034" />
<rect x="16" y="10" width="1" height="1" fill="#222034" />
<rect x="17" y="10" width="1" height="1" fill="#222034" />
<rect x="18" y="10" width="1" height="1" fill="#222034" />
<rect x="19" y="10" width="1" height="1" fill="#AD752A" />
<rect x="1" y="11" width="1" height="1" fill="#8A5824" />
<rect x="2" y="11" width="1" height="1" fill="#222034" />
<rect x="3" y="11" width="1" height="1" fill="#222034" />
<rect x="4" y="11" width="1" height="1" fill="#222034" />
<rect x="5" y="11" width="1" height="1" fill="#8A5824" />
<rect x="6" y="11" width="1" height="1" fill="#966126" />
<rect x="7" y="11" width="1" height="1" fill="#492C0A" />
<rect x="8" y="11" width="1" height="1" fill="#492C0A" />
<rect x="9" y="11" width="1" height="1" fill="#492C0A" />
<rect x="10" y="11" width="1" height="1" fill="#492C0A" />
<rect x="11" y="11" width="1" height="1" fill="#492C0A" />
<rect x="12" y="11" width="1" height="1" fill="#492C0A" />
<rect x="13" y="11" width="1" height="1" fill="#E0A822" />
<rect x="14" y="11" width="1" height="1" fill="#FFD70C" />
<rect x="15" y="11" width="1" height="1" fill="#222034" />
<rect x="16" y="11" width="1" height="1" fill="#222034" />
<rect x="17" y="11" width="1" height="1" fill="#222034" />
<rect x="18" y="11" width="1" height="1" fill="#AD752A" />
<rect x="2" y="12" width="1" height="1" fill="#8A5824" />
<rect x="3" y="12" width="1" height="1" fill="#222034" />
<rect x="4" y="12" width="1" height="1" fill="#222034" />
<rect x="5" y="12" width="1" height="1" fill="#8A5824" />
<rect x="6" y="12" width="1" height="1" fill="#8A5824" />
<rect x="7" y="12" width="1" height="1" fill="#A06827" />
<rect x="8" y="12" width="1" height="1" fill="#492C0A" />
<rect x="9" y="12" width="1" height="1" fill="#492C0A" />
<rect x="10" y="12" width="1" height="1" fill="#492C0A" />
<rect x="11" y="12" width="1" height="1" fill="#492C0A" />
<rect x="12" y="12" width="1" height="1" fill="#C0802B" />
<rect x="13" y="12" width="1" height="1" fill="#BA7D31" />
<rect x="14" y="12" width="1" height="1" fill="#FFD70C" />
<rect x="15" y="12" width="1" height="1" fill="#222034" />
<rect x="16" y="12" width="1" height="1" fill="#222034" />
<rect x="17" y="12" width="1" height="1" fill="#AD752A" />
<rect x="3" y="13" width="1" height="1" fill="#8A5824" />
<rect x="4" y="13" width="1" height="1" fill="#222034" />
<rect x="5" y="13" width="1" height="1" fill="#222034" />
<rect x="6" y="13" width="1" height="1" fill="#8A5824" />
<rect x="7" y="13" width="1" height="1" fill="#8A5824" />
<rect x="8" y="13" width="1" height="1" fill="#8A5824" />
<rect x="9" y="13" width="1" height="1" fill="#8A5824" />
<rect x="10" y="13" width="1" height="1" fill="#8A5824" />
<rect x="11" y="13" width="1" height="1" fill="#855928" />
<rect x="12" y="13" width="1" height="1" fill="#875A29" />
<rect x="13" y="13" width="1" height="1" fill="#8A5824" />
<rect x="14" y="13" width="1" height="1" fill="#222034" />
<rect x="15" y="13" width="1" height="1" fill="#222034" />
<rect x="16" y="13" width="1" height="1" fill="#AD752A" />
<rect x="4" y="14" width="1" height="1" fill="#8A5824" />
<rect x="5" y="14" width="1" height="1" fill="#222034" />
<rect x="6" y="14" width="1" height="1" fill="#222034" />
<rect x="7" y="14" width="1" height="1" fill="#222034" />
<rect x="8" y="14" width="1" height="1" fill="#222034" />
<rect x="9" y="14" width="1" height="1" fill="#222034" />
<rect x="10" y="14" width="1" height="1" fill="#222034" />
<rect x="11" y="14" width="1" height="1" fill="#222034" />
<rect x="12" y="14" width="1" height="1" fill="#222034" />
<rect x="13" y="14" width="1" height="1" fill="#222034" />
<rect x="14" y="14" width="1" height="1" fill="#222034" />
<rect x="15" y="14" width="1" height="1" fill="#AD752A" />
<rect x="5" y="15" width="1" height="1" fill="#8A5824" />
<rect x="6" y="15" width="1" height="1" fill="#222034" />
<rect x="7" y="15" width="1" height="1" fill="#222034" />
<rect x="8" y="15" width="1" height="1" fill="#222034" />
<rect x="9" y="15" width="1" height="1" fill="#222034" />
<rect x="10" y="15" width="1" height="1" fill="#222034" />
<rect x="11" y="15" width="1" height="1" fill="#222034" />
<rect x="12" y="15" width="1" height="1" fill="#222034" />
<rect x="13" y="15" width="1" height="1" fill="#222034" />
<rect x="14" y="15" width="1" height="1" fill="#AD752A" />
<rect x="6" y="16" width="1" height="1" fill="#8A5824" />
<rect x="7" y="16" width="1" height="1" fill="#222034" />
<rect x="8" y="16" width="1" height="1" fill="#222034" />
<rect x="9" y="16" width="1" height="1" fill="#222034" />
<rect x="10" y="16" width="1" height="1" fill="#222034" />
<rect x="11" y="16" width="1" height="1" fill="#222034" />
<rect x="12" y="16" width="1" height="1" fill="#222034" />
<rect x="13" y="16" width="1" height="1" fill="#AD752A" />
<rect x="7" y="17" width="1" height="1" fill="#8A5824" />
<rect x="8" y="17" width="1" height="1" fill="#222034" />
<rect x="9" y="17" width="1" height="1" fill="#222034" />
<rect x="10" y="17" width="1" height="1" fill="#222034" />
<rect x="11" y="17" width="1" height="1" fill="#222034" />
<rect x="12" y="17" width="1" height="1" fill="#AD752A" />
<rect x="8" y="18" width="1" height="1" fill="#8A5824" />
<rect x="9" y="18" width="1" height="1" fill="#222034" />
<rect x="10" y="18" width="1" height="1" fill="#222034" />
<rect x="11" y="18" width="1" height="1" fill="#AD752A" />
<rect x="9" y="19" width="1" height="1" fill="#8A5824" />
<rect x="10" y="19" width="1" height="1" fill="#AD752A" />
</svg>